<?xml version="1.0" standalone="no"?>
<!DOCTYPE svg PUBLIC "-//W3C//DTD SVG 20010904//EN"
 "http://www.w3.org/TR/2001/REC-SVG-20010904/DTD/svg10.dtd">
<svg version="1.0" xmlns="http://www.w3.org/2000/svg"
 width="128.000000pt" height="128.000000pt" viewBox="0 0 128.000000 128.000000"
 preserveAspectRatio="xMidYMid meet">

<g transform="translate(0.000000,128.000000) scale(0.100000,-0.100000)"
fill="#000000" stroke="none">
<path d="M0 640 l0 -640 640 0 640 0 0 640 0 640 -640 0 -640 0 0 -640z m644
616 c-3 -9 3 -17 15 -21 12 -3 21 -11 21 -16 0 -6 5 -7 10 -4 22 14 8 -34 -14
-48 -22 -15 -25 -14 -43 7 -26 30 -41 56 -22 39 23 -22 33 -14 13 10 -10 12
-12 16 -4 10 19 -18 35 -16 20 2 -6 8 -9 19 -5 25 9 15 15 12 9 -4z m77 -129
c-4 -4 -17 -9 -28 -11 -24 -5 -27 23 -4 40 12 9 18 8 27 -5 7 -9 9 -19 5 -24z
m82 -62 c29 -45 34 -60 16 -50 -6 4 -20 -3 -31 -15 -18 -19 -22 -20 -37 -6
-26 24 -61 90 -53 102 4 6 16 15 26 21 26 14 44 2 79 -52z m46 -69 c10 -7 7
-14 -15 -31 -21 -17 -33 -20 -41 -13 -9 7 -13 7 -13 0 0 -23 21 -22 53 2 19
15 36 26 39 26 3 0 11 -13 18 -30 7 -16 18 -30 25 -30 20 0 27 -71 10 -97 -19
-29 -20 -43 -1 -17 12 15 17 17 28 6 14 -14 20 -210 6 -218 -4 -3 -4 -12 -1
-21 4 -9 -1 -21 -11 -29 -10 -7 -20 -31 -23 -53 -5 -37 -3 -41 16 -41 29 0 27
-16 -4 -24 -23 -6 -25 -11 -25 -57 0 -30 5 -51 13 -54 8 -3 12 -26 12 -63 0
-47 -3 -58 -17 -59 -9 -1 -18 6 -20 14 -3 15 -5 15 -20 -1 -16 -16 -17 -9 -17
121 1 202 6 183 -45 183 -41 0 -130 -14 -170 -26 -18 -6 -19 -3 -11 62 10 83
10 190 0 260 l-7 51 53 6 c30 4 68 7 86 7 49 0 49 6 5 80 -8 12 -10 20 -5 17
6 -4 16 5 23 18 13 24 32 28 59 11z m-628 -32 c25 -2 65 -12 90 -22 46 -19
104 -37 152 -47 33 -7 35 -18 3 -33 -24 -11 -41 -48 -25 -58 5 -3 9 4 9 15 0
41 82 67 131 41 18 -10 19 -23 19 -198 0 -175 -1 -189 -20 -205 -39 -33 -65
-32 -95 5 -15 18 -24 26 -20 18 5 -8 17 -25 28 -37 l20 -23 -38 -16 c-21 -8
-67 -36 -103 -60 -35 -24 -68 -44 -72 -44 -4 0 -36 19 -69 41 l-62 41 22 24
c12 13 26 24 31 24 5 0 23 13 41 29 68 62 90 79 158 119 38 23 78 42 89 42 11
0 19 6 18 13 -2 6 3 11 10 9 6 -1 12 4 12 10 -1 14 -69 48 -185 94 -38 15 -77
33 -86 41 -8 7 -19 13 -24 13 -12 0 -85 51 -85 59 0 4 16 15 35 25 29 16 35
24 32 45 -2 17 -11 27 -23 28 -10 2 -13 0 -6 -3 18 -8 15 -24 -5 -25 -12 -1
-10 -3 6 -8 l24 -7 -26 -17 c-37 -24 -40 -24 -70 0 -28 21 -28 22 -12 53 12
23 21 30 33 25 9 -4 38 -9 63 -11z m980 -185 c15 -15 19 -28 14 -52 -5 -24 -4
-28 4 -17 6 8 11 24 11 34 0 18 1 18 20 1 20 -18 29 -82 10 -70 -5 3 -10 2
-10 -4 0 -5 5 -13 11 -16 7 -5 5 -13 -6 -24 -8 -9 -25 -27 -36 -40 -16 -20
-27 -24 -64 -22 -25 1 -62 8 -83 15 -20 7 -50 12 -65 12 l-28 -2 3 71 c3 64 5
70 26 73 12 2 22 10 22 17 0 8 17 19 38 24 46 13 62 14 62 1 0 -5 7 -7 15 -4
8 4 12 10 9 15 -11 18 27 8 47 -12z m-255 -317 c-13 -12 -17 8 -10 40 l9 33 3
-33 c2 -19 1 -36 -2 -40z m-3 -94 c-3 -26 -9 -45 -14 -42 -14 8 -11 82 4 87
16 6 16 8 10 -45z m-710 -40 c15 -11 27 -23 27 -27 0 -6 -83 -51 -95 -51 -2 0
-12 14 -20 30 -15 29 -15 31 12 54 15 13 32 22 38 18 5 -3 22 -14 38 -24z
m682 -158 c-16 -4 -22 -8 -12 -9 29 -2 20 -31 -10 -31 -19 0 -24 3 -15 9 11 7
11 9 -2 14 -31 12 -15 27 27 26 39 -1 40 -2 12 -9z m-14 -62 c0 -10 2 -10 6 0
7 17 30 15 37 -4 9 -25 7 -41 -4 -24 -8 12 -10 11 -10 -7 0 -13 -4 -23 -9 -23
-5 0 -12 -10 -14 -22 -3 -17 -5 -13 -7 12 l-2 35 -8 -30 -8 -30 -2 30 c-1 26
-3 27 -10 10 -7 -15 -9 -10 -9 23 -1 36 2 42 19 42 11 0 20 -6 21 -12z"/>
<path d="M824 808 c-23 -26 -24 -28 -4 -12 14 12 34 26 45 32 15 9 16 11 4 12
-8 0 -28 -15 -45 -32z"/>
<path d="M697 733 c-4 -3 -7 -16 -6 -27 0 -19 1 -19 10 3 10 24 8 36 -4 24z"/>
<path d="M742 635 c9 -10 168 -33 162 -24 -2 4 -32 10 -66 14 -35 3 -72 9 -83
12 -11 3 -17 2 -13 -2z"/>
<path d="M319 859 l-34 -30 35 23 c19 13 37 24 39 25 2 2 2 5 0 8 -3 2 -21 -9
-40 -26z"/>
<path d="M377 449 c12 -12 24 -21 27 -18 2 2 -8 13 -22 23 l-27 19 22 -24z"/>
<path d="M1054 744 c-18 -14 -18 -15 4 -4 12 6 22 13 22 15 0 8 -5 6 -26 -11z"/>
<path d="M1130 730 c8 -5 22 -9 30 -9 10 0 8 3 -5 9 -27 12 -43 12 -25 0z"/>
<path d="M1060 709 c0 -5 5 -7 10 -4 6 3 10 8 10 11 0 2 -4 4 -10 4 -5 0 -10
-5 -10 -11z"/>
<path d="M1106 695 c4 -8 8 -15 10 -15 2 0 4 7 4 15 0 8 -4 15 -10 15 -5 0 -7
-7 -4 -15z"/>
<path d="M1163 673 c9 -2 23 -2 30 0 6 3 -1 5 -18 5 -16 0 -22 -2 -12 -5z"/>
<path d="M1017 643 c-7 -39 -1 -40 11 -4 6 17 7 31 3 31 -5 0 -11 -12 -14 -27z"/>
<path d="M1068 644 c-16 -8 -28 -19 -28 -25 0 -6 5 -6 13 1 6 6 21 17 32 25
26 19 17 18 -17 -1z"/>
<path d="M1129 622 c-3 -20 -2 -29 4 -23 5 5 7 19 5 32 -3 20 -5 19 -9 -9z"/>
<path d="M1188 643 c6 -2 18 -2 25 0 6 3 1 5 -13 5 -14 0 -19 -2 -12 -5z"/>
<path d="M1165 610 c-25 -11 1 -11 35 0 20 6 21 8 5 8 -11 0 -29 -3 -40 -8z"/>
</g>
</svg>
